<svg width="915" height="915" viewBox="0 0 915 915" fill="none" xmlns="http://www.w3.org/2000/svg">
<g id="all_inbox_black_48dp 1">
<rect width="915" height="915" fill="#F5F5F1"/>
<path id="Vector" d="M724.375 114.375H190.625C148.688 114.375 114.375 148.688 114.375 190.625V457.5C114.375 499.438 148.688 533.75 190.625 533.75H724.375C766.312 533.75 800.625 499.438 800.625 457.5V190.625C800.625 148.688 766.312 114.375 724.375 114.375ZM724.375 343.125H571.875C571.875 404.888 519.263 457.5 457.5 457.5C395.737 457.5 343.125 404.888 343.125 343.125H190.625V190.625H724.375V343.125ZM571.875 610H800.625V724.375C800.625 766.312 766.312 800.625 724.375 800.625H190.625C148.688 800.625 114.375 766.312 114.375 724.375V610H343.125C343.125 673.287 394.212 724.375 457.5 724.375C520.788 724.375 571.875 673.287 571.875 610Z" fill="#23C7AC"/>
</g>
</svg>
